Coordinates
version=1
nRows=16
nColumns=40
inDegrees=yes

Units are S.I. units (second, meters, Newtons, ...)
Angles are in degrees.

endheader
time	pelvis_tilt	pelvis_list	pelvis_rotation	pelvis_tx	pelvis_ty	pelvis_tz	hip_flexion_r	hip_adduction_r	hip_rotation_r	knee_angle_r	knee_angle_r_beta	ankle_angle_r	subtalar_angle_r	mtp_angle_r	hip_flexion_l	hip_adduction_l	hip_rotation_l	knee_angle_l	knee_angle_l_beta	ankle_angle_l	subtalar_angle_l	mtp_angle_l	lumbar_extension	lumbar_bending	lumbar_rotation	arm_flex_r	arm_add_r	arm_rot_r	elbow_flex_r	pro_sup_r	wrist_flex_r	wrist_dev_r	arm_flex_l	arm_add_l	arm_rot_l	elbow_flex_l	pro_sup_l	wrist_flex_l	wrist_dev_l
     38.33000000	     -3.45863659	     -5.91962244	     -1.49841473	      1.09359869	      0.93666960	      0.40158079	     29.71702933	     -5.09081104	     -5.54135301	     54.40132049	     54.40132049	      1.47964076	     -7.65208430	     -2.05017134	     12.30242801	     -7.39088343	    -11.13626927	     20.52574562	     20.52574562	     13.41722504	    -10.61810546	     -0.04846317	    -11.05846578	      6.88550001	      1.90472699	     -0.79740297	    -12.58097566	     -3.78915775	     30.20924127	     46.47463282	      0.00000000	      0.00000000	     19.71099101	    -19.72422670	     -4.20414540	     52.76455789	     46.42524253	      0.00000000	      0.00000000
     38.34371429	     -3.57757360	     -5.95289761	     -1.89200273	      1.09197580	      0.93721483	      0.40187169	     29.94948392	     -4.85410726	     -5.67641353	     51.27145625	     51.27145625	      1.46928287	     -6.84731379	     -2.42569050	     11.68329296	     -7.41820705	    -11.63550470	     19.78362612	     19.78362612	     13.28315296	    -10.37950055	     -0.46431323	    -11.35031544	      6.85344531	      2.21472876	     -2.09985025	    -12.55948236	     -3.75836505	     29.28291577	     46.49349228	      0.00000000	      0.00000000	     20.41437068	    -19.98112214	     -4.88979086	     55.08246527	     46.52852380	      0.00000000	      0.00000000
     38.35742857	     -3.91451808	     -6.03884776	     -2.22508647	      1.09031724	      0.93723053	      0.40231416	     30.18805980	     -4.54832242	     -5.96928975	     47.60637040	     47.60637040	      1.00745973	     -6.21028555	     -3.75051799	     11.38576017	     -7.51490840	    -11.99766727	     19.13518574	     19.13518574	     12.90861098	    -10.34878433	     -1.52336179	    -11.36612611	      6.90947168	      1.67840420	     -2.98013647	    -12.41618178	     -3.87498100	     28.79325652	     46.49644464	      0.00000000	      0.00000000	     20.11795060	    -20.76491630	     -6.18119553	     57.95937351	     46.70009151	      0.00000000	      0.00000000
     38.37114286	     -4.30727819	     -6.09954325	     -2.51366501	      1.08868475	      0.93701845	      0.40282211	     30.36347997	     -4.24348645	     -6.31732111	     43.68618040	     43.68618040	      0.99619055	     -5.25606229	     -3.34061610	     11.25682266	     -7.59212311	    -12.24909819	     18.70935989	     18.70935989	     12.96555244	    -10.26775766	     -1.57273092	    -11.24329857	      6.98199482	      1.46679497	     -4.04426929	    -12.34592063	     -3.85032343	     28.44204169	     46.49754854	      0.00000000	      0.00000000	     20.81491134	    -21.32867987	     -6.46073295	     58.51850145	     46.73790472	      0.00000000	      0.00000000
     38.38485714	     -4.47287845	     -6.08329601	     -2.81976884	      1.08735308	      0.93698059	      0.40337825	     30.04972183	     -4.04444844	     -6.84335172	     39.35050552	     39.35050552	      0.86620910	     -3.85401991	     -3.21619661	     10.80470568	     -7.58392090	    -12.63779767	     18.19331024	     18.19331024	     12.99300205	    -10.08978836	     -1.83542856	    -11.40753765	      6.94040919	      1.57580976	     -5.19696478	    -12.38338179	     -3.86067175	     28.18307994	     46.49406092	      0.00000000	      0.00000000	     21.48716403	    -21.59479307	     -6.83040954	     59.72917021	     46.79835489	      0.00000000	      0.00000000
     38.39857143	     -4.78500650	     -5.99407267	     -3.10816602	      1.08612222	      0.93647347	      0.40406925	     29.73978296	     -3.87026470	     -7.46198762	     34.78108317	     34.78108317	      0.43043423	     -2.39292240	     -3.45143951	     10.54710873	     -7.52241347	    -13.05151693	     17.73236399	     17.73236399	     12.91377873	     -9.89428006	     -2.48142585	    -11.36098569	      6.82409316	      1.46667871	     -6.37212382	    -12.39121353	     -3.97420237	     28.41836683	     46.47062720	      0.00000000	      0.00000000	     21.76453402	    -21.94212504	     -7.29773011	     61.24630369	     46.87748381	      0.00000000	      0.00000000
     38.41228571	     -5.05939798	     -5.89446092	     -3.35478700	      1.08501863	      0.93589773	      0.40487070	     29.20478477	     -3.63460742	     -8.15376299	     30.04155333	     30.04155333	      0.09251195	     -0.77772903	     -2.89264562	     10.31154429	     -7.45211056	    -13.31782925	     17.39626177	     17.39626177	     12.95894044	     -9.79573572	     -2.85435693	    -11.35212121	      6.72472153	      1.38882252	     -7.28429747	    -12.36373827	     -4.01210055	     28.42843206	     46.45868294	      0.00000000	      0.00000000	     22.19487777	    -22.32486458	     -7.53186555	     62.02716883	     46.92089057	      0.00000000	      0.00000000
     38.42600000	     -5.44304143	     -5.75128512	     -3.59037616	      1.08412713	      0.93500276	      0.40584260	     28.67095473	     -3.34279091	     -8.84490892	     25.32247067	     25.32247067	     -0.28337335	      0.79056695	     -1.92146394	     10.19798673	     -7.34647018	    -13.56407729	     17.09034549	     17.09034549	     13.06003192	     -9.72060526	     -3.11894683	    -11.12010042	      6.59371206	      1.28241830	     -8.09553895	    -12.31061466	     -4.03610399	     28.35813392	     46.45316158	      0.00000000	      0.00000000	     22.54354089	    -22.60504486	     -7.64130674	     62.54704278	     46.94474918	      0.00000000	      0.00000000
     38.43971429	     -5.54303843	     -5.51871113	     -3.79630551	      1.08368263	      0.93429229	      0.40684547	     27.78881294	     -3.22570147	    -10.03331554	     20.95084570	     20.95084570	     -0.32670947	      3.34081378	     -0.24336749	      9.70325751	     -7.13801832	    -13.95607102	     16.67869289	     16.67869289	     12.92063432	     -9.53970519	     -4.23208335	    -11.21920132	      6.32996818	      1.25475685	     -9.10240983	    -12.33669112	     -4.21257120	     29.06286095	     46.41106044	      0.00000000	      0.00000000	     22.74627833	    -22.85071277	     -7.72786649	     63.63706492	     46.99764303	      0.00000000	      0.00000000
     38.45342857	     -5.70254034	     -5.25165393	     -3.98099321	      1.08351664	      0.93340645	      0.40802292	     27.00305754	     -3.03687570	    -11.08901302	     17.05896211	     17.05896211	     -0.35871166	      5.43995696	      1.74505272	      9.24719133	     -6.88018006	    -14.25218052	     16.24971298	     16.24971298	     12.95348911	     -9.40992611	     -4.77718688	    -11.11904425	      6.04653372	      1.27006473	     -9.82358120	    -12.34035502	     -4.24996608	     29.16587826	     46.39414638	      0.00000000	      0.00000000	     23.00899976	    -22.99343478	     -7.69395944	     64.01416161	     47.01997118	      0.00000000	      0.00000000
     38.46714286	     -5.82581239	     -5.01445446	     -4.14624090	      1.08362516	      0.93247445	      0.40939868	     26.23459837	     -2.75073499	    -12.01477665	     13.79367195	     13.79367195	     -0.39976264	      7.05744419	      3.48039947	      8.79683866	     -6.66980177	    -14.46871912	     15.94602916	     15.94602916	     13.09014534	     -9.36214966	     -5.18216076	    -11.02701299	      5.82181734	      1.25316225	    -10.34101117	    -12.33742060	     -4.27814229	     29.20800945	     46.38495412	      0.00000000	      0.00000000	     23.16586767	    -23.11443276	     -7.64096334	     64.21758260	     47.02998756	      0.00000000	      0.00000000
     38.48085714	     -5.94150994	     -4.75321618	     -4.32150203	      1.08401236	      0.93156808	      0.41095464	     25.62614123	     -2.51981236	    -13.04866193	     11.43476595	     11.43476595	     -0.19148522	      8.65484484	      5.26948779	      8.25310042	     -6.42583264	    -14.71469527	     15.51328139	     15.51328139	     13.18197632	     -9.21543765	     -5.63245979	    -10.87862755	      5.55247288	      1.26910686	    -10.74640975	    -12.31432379	     -4.30365332	     29.32440161	     46.37304154	      0.00000000	      0.00000000	     23.21786066	    -23.11733148	     -7.52778916	     64.33636827	     47.03285151	      0.00000000	      0.00000000
     38.49457143	     -6.14555529	     -4.49085369	     -4.48518457	      1.08458002	      0.93051709	      0.41263899	     25.28590284	     -2.30112155	    -13.80333950	      9.98524158	      9.98524158	      0.00050353	      9.56827102	      6.25175879	      7.80401186	     -6.18066016	    -14.93676034	     15.08592562	     15.08592562	     13.33363287	     -9.12059853	     -5.91297450	    -10.58091667	      5.33732986	      1.28353390	    -10.95319653	    -12.26936821	     -4.31182046	     29.39410330	     46.36588821	      0.00000000	      0.00000000	     23.13937046	    -23.04639170	     -7.43862275	     64.32329835	     47.03128675	      0.00000000	      0.00000000
     38.50828571	     -6.10363739	     -4.32372464	     -4.61454975	      1.08556771	      0.92993197	      0.41445213	     24.71980176	     -2.07937717	    -14.74808156	      9.24999012	      9.24999012	      0.44336434	     10.56983843	      7.30083161	      6.97226607	     -6.00817278	    -15.12943013	     14.49344024	     14.49344024	     13.37760366	     -8.96763687	     -6.31698218	    -10.52361934	      5.16675194	      1.32497226	    -11.07406899	    -12.31556305	     -4.32706893	     29.54536106	     46.35451455	      0.00000000	      0.00000000	     22.98176473	    -22.91270393	     -7.32234394	     64.14385282	     47.02898959	      0.00000000	      0.00000000
     38.52200000	     -6.28795109	     -4.16254521	     -4.73142760	      1.08645277	      0.92886780	      0.41651275	     24.55536918	     -1.83763039	    -15.06101602	      9.23273190	      9.23273190	      0.67058645	     10.40953211	      7.25115353	      6.68275909	     -5.94430140	    -15.19955444	     14.46937391	     14.46937391	     13.63600247	     -9.06205777	     -6.40141846	    -10.24068816	      5.02765845	      1.37733678	    -11.02207244	    -12.32804223	     -4.33043360	     29.57279372	     46.35390633	      0.00000000	      0.00000000	     22.87793997	    -22.84068461	     -7.29840215	     64.11027965	     47.02617256	      0.00000000	      0.00000000
     38.53571429	     -6.19021487	     -4.05029681	     -4.84235432	      1.08822432	      0.92836602	      0.41860689	     24.05713680	     -1.65662910	    -15.38620819	      9.68978644	      9.68978644	      1.10095417	     10.53866363	      6.81371186	      5.56204112	     -5.77473181	    -15.39873709	     13.53886537	     13.53886537	     13.78091788	     -8.72424463	     -6.48745636	    -10.05917245	      5.00130021	      1.36279710	    -10.82962434	    -12.39539817	     -4.32563252	     29.74146401	     46.34436393	      0.00000000	      0.00000000	     22.18351247	    -22.45473761	     -7.22927594	     63.50759198	     47.01382527	      0.00000000	      0.00000000
